#!OML:ASF I:\Actors\actors\Patient Classification 1\Patient 1\Session 1\Subject1.ASF
:FULLY-SPECIFIED
:DEGREES
508
root -0.436485 17.7397 8.10567 18.7556 6.40329 -14.1263
lowerback 9.27754 2.30057 1.4258
upperback 9.18269 3.0921 1.19407
thorax 4.39561 1.57969 0.282466
lowerneck 4.24205 -10.9721 -11.8127
upperneck 33.3653 -16.5905 7.83627
head 12.0403 -8.1897 3.36552
rclavicle -3.26007e-014 -8.74653e-015
rhumerus 89.2024 48.6827 -2.25639
rradius 39.063
rwrist 15.9287
rhand 23.605 -34.0322
rfingers 7.12502
rthumb 47.8774 -56.302
lclavicle -3.26007e-014 -8.74653e-015
lhumerus -15.3969 -67.0832 86.6503
lradius 116.478
lwrist 82.524
lhand -41.249 -8.69809
lfingers 7.12502
lthumb -14.1715 20.7985
rfemur -20.6375 14.3102 29.9664
rtibia 9.89967
rfoot -11.8749 -21.1687
rtoes 2.30854
lfemur -18.6254 -47.9673 15.4862
ltibia -2.68525
lfoot -25.4973 56.387
ltoes 9.57363
509
root -0.43912 17.7394 8.10172 18.7316 6.99493 -14.2049
lowerback 9.45003 2.37171 1.4561
upperback 9.23816 3.18929 1.31549
thorax 4.35592 1.62668 0.380433
lowerneck 4.17302 -10.8793 -12.0826
upperneck 33.7825 -16.5764 8.24796
head 12.302 -8.16759 3.56351
rclavicle -1.43125e-014 4.85035e-014
rhumerus 90.3149 49.3874 -1.2036
rradius 40.8248
rwrist 12.9097
rhand 25.3609 -34.5827
rfingers 7.12502
rthumb 49.4923 -56.068
lclavicle -1.43125e-014 4.85035e-014
lhumerus -16.1141 -67.2215 86.8113
lradius 116.682
lwrist 82.6667
lhand -42.2303 -2.8572
lfingers 7.12502
lthumb -15.117 26.5707
rfemur -20.6832 14.2697 30.0622
rtibia 9.93877
rfoot -12.0488 -21.4002
rtoes 2.63862
lfemur -19.0601 -47.8956 15.9742
ltibia -2.7523
lfoot -24.4432 56.2021
ltoes 8.52224
510
root -0.441797 17.7398 8.09709 18.7213 7.53129 -14.2403
lowerback 9.58495 2.42148 1.47155
upperback 9.32412 3.25706 1.40736
thorax 4.37013 1.65933 0.46019
lowerneck 3.97284 -10.7514 -12.3816
upperneck 34.2598 -16.5109 8.66647
head 12.6159 -8.12084 3.77243
rclavicle -1.98785e-014 1.90833e-014
rhumerus 91.4227 50.0118 -0.318506
rradius 42.5173
rwrist 9.78191
rhand 26.5925 -34.9986
rfingers 7.12502
rthumb 50.6191 -55.8901
lclavicle -1.98785e-014 1.90833e-014
lhumerus -16.7738 -67.3081 86.922
lradius 116.857
lwrist 82.6748
lhand -40.5501 5.28537
lfingers 7.12502
lthumb -13.498 34.8279
rfemur -20.7521 14.2124 30.1002
rtibia 9.97094
rfoot -12.2034 -21.6113
rtoes 3.25962
lfemur -19.4545 -47.7018 16.345
ltibia -2.81623
lfoot -23.1748 55.965
ltoes 7.32077
511
root -0.444249 17.7409 8.09465 18.734 8.01255 -14.2418
lowerback 9.6657 2.47585 1.52732
upperback 9.39886 3.33368 1.43385
thorax 4.40842 1.7008 0.451434
lowerneck 3.93717 -10.6282 -12.6664
upperneck 34.53 -16.5029 9.25285
head 12.8346 -8.09405 4.05011
rclavicle 1.59028e-014 3.26007e-014
rhumerus 92.3835 50.6615 0.303194
rradius 44.1359
rwrist 6.73897
rhand 27.5283 -35.279
rfingers 7.12502
rthumb 51.4717 -55.6933
lclavicle 1.59028e-014 3.26007e-014
lhumerus -17.5211 -67.2796 87.0342
lradius 117.064
lwrist 83.0274
lhand -40.6424 4.92819
lfingers 7.12502
lthumb -13.587 34.4648
rfemur -20.8034 14.151 30.0958
rtibia 9.93539
rfoot -12.2874 -21.8329
rtoes 3.70382
lfemur -19.9589 -47.8738 16.7885
ltibia -2.7579
lfoot -22.9153 55.9204
ltoes 6.98979
512
root -0.446049 17.7426 8.09505 18.7803 8.43718 -14.2304
lowerback 9.69433 2.53771 1.50522
upperback 9.43942 3.41426 1.49485
thorax 4.43164 1.73852 0.522677
lowerneck 4.16664 -10.7312 -12.2119
upperneck 34.2968 -16.5644 8.96292
head 12.6145 -8.09872 3.86899
rclavicle 4.05521e-014 2.38542e-015
rhumerus 93.6875 51.2813 1.36968
rradius 45.7981
rwrist 3.46998
rhand 27.9654 -35.6884
rfingers 7.12502
rthumb 51.8688 -55.8717
lclavicle 4.05521e-014 2.38542e-015
lhumerus -18.3646 -67.327 87.3828
lradius 117.201
lwrist 83.0792
lhand -41.035 4.19675
lfingers 7.12502
lthumb -13.9654 33.7077
rfemur -20.8462 14.1065 30.0752
rtibia 9.86623
rfoot -12.3746 -22.0557
rtoes 4.0178
lfemur -20.4714 -48.0007 17.2041
ltibia -2.666
lfoot -22.8814 55.8329
ltoes 6.94509
513
root -0.447609 17.7446 8.09591 18.8259 8.80051 -14.2348
lowerback 9.68541 2.60246 1.43199
upperback 9.48884 3.49356 1.60253
thorax 4.47855 1.77103 0.672984
lowerneck 4.09907 -10.7541 -12.3424
upperneck 34.6652 -16.4608 8.55016
head 12.7484 -8.08933 3.74299
rclavicle 7.95139e-016 1.51076e-014
rhumerus 95.3792 51.728 2.93361
rradius 47.4397
rwrist 0.0344485
rhand 27.6734 -35.9117
rfingers 7.12502
rthumb 51.6035 -56.2499
lclavicle 7.95139e-016 1.51076e-014
lhumerus -18.8948 -67.3847 87.6598
lradius 117.255
lwrist 83.1031
lhand -41.3712 2.13133
lfingers 7.12502
lthumb -14.2893 31.6197
rfemur -20.8943 14.122 30.0667
rtibia 9.8151
rfoot -12.5109 -22.303
rtoes 4.49594
lfemur -20.8759 -48.0206 17.5531
ltibia -2.63259
lfoot -22.5678 55.7334
ltoes 6.63429
514
root -0.448711 17.7462 8.09609 18.8559 9.08978 -14.2126
lowerback 9.64479 2.6284 1.31666
upperback 9.54949 3.51894 1.68772
thorax 4.55331 1.7749 0.828418
lowerneck 4.0366 -10.8407 -12.2478
upperneck 34.8885 -16.2242 7.43097
head 12.702 -8.05637 3.32381
rclavicle 1.51076e-014 -2.70347e-014
rhumerus 97.1868 52.0551 4.47906
rradius 48.9804
rwrist -3.05997
rhand 27.3363 -35.6628
rfingers 7.12502
rthumb 51.297 -56.1769
lclavicle 1.51076e-014 -2.70347e-014
lhumerus -19.5954 -67.413 88.0764
lradius 117.289
lwrist 82.8342
lhand -41.4521 0.534313
lfingers 7.12502
lthumb -14.3673 30.0171
rfemur -20.9193 14.1722 30.0285
rtibia 9.7526
rfoot -12.5987 -22.5728
rtoes 4.71705
lfemur -21.1829 -47.9357 17.7603
ltibia -2.59084
lfoot -22.0544 55.5951
ltoes 6.0741
515
root -0.449563 17.7467 8.09629 18.8852 9.30628 -14.1633
lowerback 9.57598 2.64201 1.14439
upperback 9.59014 3.52494 1.76109
thorax 4.61918 1.76597 1.00494
lowerneck 4.0123 -10.9065 -12.1016
upperneck 35.0095 -16.0863 6.69501
head 12.6525 -8.03516 3.03554
rclavicle 1.03368e-014 -1.98785e-014
rhumerus 98.8647 52.405 5.71336
rradius 50.2752
rwrist -5.51519
rhand 27.2748 -35.1043
rfingers 7.12502
rthumb 51.241 -55.6502
lclavicle 1.03368e-014 -1.98785e-014
lhumerus -20.5303 -67.3858 88.6885
lradius 117.315
lwrist 82.5083
lhand -41.4054 -0.719858
lfingers 7.12502
lthumb -14.3223 28.7661
rfemur -20.939 14.1587 29.9768
rtibia 9.70182
rfoot -12.6052 -22.7491
rtoes 4.59863
lfemur -21.3884 -47.5978 17.7813
ltibia -2.51916
lfoot -21.4066 55.2386
ltoes 5.62754
516
root -0.449556 17.7474 8.09737 18.8841 9.41506 -14.1729
lowerback 9.46674 2.68091 1.00885
upperback 9.63164 3.56536 1.83571
thorax 4.71024 1.7758 1.1628
lowerneck 3.88411 -10.8361 -12.3444
upperneck 35.3724 -15.9896 6.73932
head 12.8582 -8.00825 3.09506
rclavicle 4.53229e-014 -4.77083e-014
rhumerus 100.369 52.7553 6.67789
rradius 51.103
rwrist -7.14443
rhand 27.4367 -33.9491
rfingers 7.12502
rthumb 51.3884 -54.4111
lclavicle 4.53229e-014 -4.77083e-014
lhumerus -21.2746 -67.2648 89.2025
lradius 117.427
lwrist 82.6666
lhand -41.7434 -1.29133
lfingers 7.12502
lthumb -14.6479 28.1713
rfemur -20.9376 14.0899 30.0107
rtibia 9.68804
rfoot -12.5813 -22.7747
rtoes 4.51623
lfemur -21.4173 -47.1066 17.6827
ltibia -2.44215
lfoot -20.7345 54.7908
ltoes 5.31119
517
root -0.448258 17.7487 8.09917 18.8316 9.40381 -14.207
lowerback 9.33158 2.74495 0.940651
upperback 9.68991 3.64283 1.86274
thorax 4.84049 1.80919 1.23433
lowerneck 3.76789 -10.6522 -12.9171
upperneck 35.7833 -15.8102 7.09468
head 13.1425 -7.95889 3.34097
rclavicle 1.98785e-014 -1.74931e-014
rhumerus 101.663 53.029 7.38186
rradius 51.4157
rwrist -8.38448
rhand 27.8041 -32.3279
rfingers 7.12502
rthumb 51.7224 -52.597
lclavicle 1.98785e-014 -1.74931e-014
lhumerus -21.8756 -67.3274 89.6466
lradius 117.293
lwrist 82.3462
lhand -41.5353 -4.07619
lfingers 7.12502
lthumb -14.4474 25.4009
rfemur -20.8763 14.0812 30.0652
rtibia 9.68797
rfoot -12.5648 -22.7616
rtoes 4.47772
lfemur -21.2503 -46.464 17.4091
ltibia -2.37063
lfoot -20.0467 54.264
ltoes 4.93449
518
root -0.446613 17.7501 8.10031 18.7395 9.34802 -14.2041
lowerback 9.23478 2.79444 0.849623
upperback 9.72249 3.70181 1.86077
thorax 4.92241 1.83303 1.28645
lowerneck 3.89455 -10.7763 -12.3736
upperneck 35.6073 -15.847 6.54959
head 12.9273 -7.96183 3.04688
rclavicle -1.11319e-014 2.94201e-014
rhumerus 102.851 53.2408 7.91949
rradius 51.3262
rwrist -9.72145
rhand 28.5244 -30.976
rfingers 7.12502
rthumb 52.3756 -50.8559
lclavicle -1.11319e-014 2.94201e-014
lhumerus -22.3141 -67.3017 89.9613
lradius 117.168
lwrist 81.9054
lhand -41.429 -5.5778
lfingers 7.12502
lthumb -14.345 23.9066
rfemur -20.7774 14.1002 30.0801
rtibia 9.71811
rfoot -12.5925 -22.7687
rtoes 4.35028
lfemur -20.99 -45.7602 16.9912
ltibia -2.29289
lfoot -19.2927 53.6664
ltoes 4.29435
519
root -0.444885 17.7518 8.10025 18.617 9.29585 -14.2015
lowerback 9.18136 2.81416 0.788228
upperback 9.71698 3.72458 1.84824
thorax 4.94237 1.84117 1.30904
lowerneck 3.83993 -10.7754 -12.3441
upperneck 35.6954 -15.8618 6.57813
head 12.9791 -7.96126 3.04791
rclavicle 1.74931e-014 2.78299e-014
rhumerus 103.86 53.3928 8.27826
rradius 50.9031
rwrist -10.9532
rhand 29.8708 -30.1012
rfingers 7.12502
rthumb 53.5908 -49.2122
lclavicle 1.74931e-014 2.78299e-014
lhumerus -22.6995 -67.2735 90.233
lradius 117.044
lwrist 81.2644
lhand -41.1869 -7.07223
lfingers 7.12502
lthumb -14.1118 22.4286
rfemur -20.6698 14.0591 30.1175
rtibia 9.80885
rfoot -12.6497 -22.7425
rtoes 4.26932
lfemur -20.6884 -44.9244 16.5059
ltibia -2.18938
lfoot -18.1231 52.9536
ltoes 3.05955
520
root -0.441955 17.7526 8.10087 18.4872 9.22713 -14.1817
lowerback 9.13213 2.81338 0.706275
upperback 9.6578 3.71939 1.85998
thorax 4.89951 1.83357 1.36703
lowerneck 3.67248 -10.7903 -12.2641
upperneck 35.8521 -15.8793 6.53036
head 13.0713 -7.95902 3.00388
rclavicle 3.33958e-014 0
rhumerus 104.468 53.5774 8.23354
rradius 49.9795
rwrist -11.6671
rhand 32.1188 -29.5633
rfingers 7.12502
rthumb 55.601 -47.2581
lclavicle 3.33958e-014 0
lhumerus -23.0709 -67.2261 90.5921
lradius 116.914
lwrist 80.6224
lhand -40.9465 -8.38312
lfingers 7.12502
lthumb -13.88 21.1337
rfemur -20.5449 13.9704 30.1428
rtibia 9.909
rfoot -12.6811 -22.6562
rtoes 4.22595
lfemur -20.3775 -43.9586 15.9589
ltibia -2.05944
lfoot -16.7022 52.1358
ltoes 1.62381
521
root -0.437968 17.7527 8.10256 18.3376 9.12576 -14.0975
lowerback 9.02774 2.8183 0.582757
upperback 9.57636 3.71955 1.86761
thorax 4.86062 1.82646 1.44562
lowerneck 3.5306 -10.6347 -12.5236
upperneck 36.2195 -15.7157 6.70966
head 13.2923 -7.89726 3.12882
rclavicle -2.06736e-014 -2.78299e-014
rhumerus 104.295 53.9059 7.27257
rradius 48.3232
rwrist -11.9101
rhand 35.2748 -28.2188
rfingers 7.12502
rthumb 58.3763 -43.5977
lclavicle -2.06736e-014 -2.78299e-014
lhumerus -23.255 -67.1446 90.8674
lradius 116.702
lwrist 80.2027
lhand -40.8203 -9.39388
lfingers 7.12502
lthumb -13.7584 20.1312
rfemur -20.3769 13.8589 30.0954
rtibia 9.97719
rfoot -12.7146 -22.5476
rtoes 4.20268
lfemur -20.0421 -43.0104 15.2987
ltibia -1.88842
lfoot -15.5455 51.2714
ltoes 0.566346
